<?xml version="1.0" encoding="UTF-8"?>
<svg id="Calque_2" xmlns="http://www.w3.org/2000/svg" version="1.1" viewBox="0 0 192 192">
  <!-- Generator: Adobe Illustrator 29.8.1, SVG Export Plug-In . SVG Version: 2.1.1 Build 2)  -->
  <defs>
    <style>
      .st0 {
        fill: #29233e;
      }

      .st1 {
        fill: #f9b233;
      }

      .st2 {
        fill: #ff8969;
      }
    </style>
  </defs>
  <g>
    <path class="st0" d="M75.24,53.21l-3.08,7.5c-4.06,9.63-7.84,19.21-11.34,28.77-1.69,4.62-4.25,12.68-7.68,24.17,5.19-.44,12.16-1.53,20.9-3.28,5.62-1.12,9.03-1.69,10.21-1.69,2.19,0,3.28.87,3.28,2.62,0,2.06-1.2,4.95-3.61,8.67-2.4,3.72-5.11,6.92-8.1,9.6-2.06,1.94-5.12,3.28-9.18,4.03s-10.4,1.12-19.02,1.12c-8.06,0-14.27-.25-18.64-.75-.06,0-1.09-.31-3.09-.94-3.56-1.5-5.34-4.62-5.34-9.37,0-3.44.98-9.71,2.95-18.83,1.97-9.12,4.83-20.46,8.57-34.01,8.49-30.23,14.9-48.91,19.21-56.03,1.37-2.44,3.11-4.33,5.2-5.67,2.08-1.34,4.94-2.39,8.56-3.14,3.5-.75,7.53-1.12,12.08-1.12,4.25,0,7.23.55,8.95,1.64s2.58,2.98,2.58,5.67-1.12,7.35-3.37,14.38-5.59,15.91-10.02,26.65Z"/>
    <g>
      <path class="st2" d="M159.74,107.75c-1.31-2.48-3.08-4.8-5.31-6.99-2.23-2.18-4.83-4.13-7.79-5.82-2.96-1.7-6.09-3.06-9.39-4.08,5.53-4.66,9.74-8.92,12.63-12.78,2.89-3.86,4.33-7.63,4.33-11.32,0-.73-.07-1.57-.22-2.51-.15-.95-.35-1.9-.62-2.88-.27-.97-.56-1.9-.87-2.8-.32-.9-.64-1.64-.98-2.22-.78-1.41-1.9-2.73-3.39-3.97-1.48-1.24-3.09-2.32-4.84-3.24-1.75-.92-3.55-1.65-5.42-2.18-1.87-.53-3.58-.8-5.13-.8-2.52,0-4.79.04-6.81.11-2.01.07-3.87.19-5.57.36-1.7.17-3.3.41-4.8.73-1.5.32-2.98.69-4.44,1.13-1.12.34-3.43,1.12-6.95,2.33-3.52,1.21-8.31,2.79-14.38,4.73-1.21.39-2.51.76-3.89,1.13-1.38.36-2.78.64-4.19.84-1.3.17-2.55.93-3.75,2.27l-1.16,2.82v.02s-.02.02-.02.02c-1.15,2.74-2.29,5.48-3.4,8.22-.08.84-.12,1.7-.12,2.6,0,.19.05.57.15,1.13.1.56.21,1.19.33,1.89s.23,1.4.33,2.07.15,1.29.15,1.82c0,.73-.22,2.96-.66,6.7,0,.24-.07,1.02-.22,2.33-.15,1.31-.32,2.89-.51,4.73-.19,1.84-.39,3.81-.58,5.9-.19,2.02-.38,3.92-.56,5.69.46-.09.91-.18,1.38-.27,7.86-1.57,10.07-1.78,11.2-1.78,2.4,0,4.24.68,5.57,1.74.13-1.13.24-2.22.32-3.27.1-1.16.18-2.4.25-3.71.07-1.31.16-2.98.25-5.02.15-3.15.25-5.85.33-8.08.07-2.23.13-4.08.18-5.53.05-1.46.12-2.57.22-3.35.1-.78.22-1.26.36-1.46.68-.87,1.55-1.75,2.62-2.62,1.07-.87,2.27-1.7,3.6-2.48,1.33-.78,2.75-1.5,4.26-2.18s3.01-1.26,4.51-1.75c3.54-1.12,7.17-1.97,10.88-2.55s7.02-.87,9.94-.87c3.69,0,6.35.45,7.97,1.35s2.44,2.24,2.44,4.04c0,.87-.39,1.89-1.16,3.06s-1.81,2.39-3.09,3.68-2.73,2.58-4.33,3.89c-1.6,1.31-3.2,2.56-4.8,3.75-1.6,1.19-3.14,2.27-4.62,3.24-1.48.97-2.75,1.77-3.82,2.4-.15.05-.52.07-1.13.07s-1.31.01-2.11.04c-.8.02-1.63.06-2.48.11s-1.61.15-2.29.29c-1.21.24-2.38.67-3.49,1.27-1.12.61-2.11,1.38-2.98,2.33-.87.95-1.57,2.07-2.07,3.39-.51,1.31-.76,2.77-.76,4.37,0,.87.19,1.75.58,2.62.39.87.93,1.65,1.64,2.33s1.57,1.23,2.58,1.64c1.02.41,2.14.62,3.35.62.87,0,1.72-.12,2.55-.36.83-.24,1.82-.63,2.98-1.16.97-.44,1.88-.83,2.73-1.16.85-.34,1.75-.62,2.69-.84.95-.22,2.03-.39,3.24-.51,1.21-.12,2.69-.18,4.44-.18.63,0,1.53.12,2.69.36,1.16.24,2.43.61,3.79,1.09,1.36.49,2.77,1.12,4.22,1.89,1.46.78,2.77,1.7,3.93,2.77,1.16,1.07,2.12,2.28,2.88,3.64.75,1.36,1.13,2.89,1.13,4.59,0,2.04-.5,4.21-1.49,6.52-.99,2.31-2.28,4.56-3.86,6.77-1.58,2.21-3.34,4.27-5.28,6.19-1.94,1.92-3.86,3.53-5.75,4.84-.58.39-1.41.8-2.48,1.24-1.07.44-2.18.84-3.35,1.2-1.16.36-2.29.66-3.39.87-1.09.22-1.95.33-2.58.33-1.26,0-3.06-.51-5.39-1.53-.73-.34-1.37-.63-1.93-.87-.56-.24-1.13-.44-1.71-.58-.58-.15-1.2-.25-1.86-.33-.66-.07-1.44-.11-2.37-.11-1.5,0-2.92.21-4.26.62-1.33.41-2.5.99-3.49,1.75s-1.78,1.66-2.37,2.73-.87,2.26-.87,3.57c0,2.04.38,3.8,1.13,5.28.75,1.48,1.83,2.71,3.24,3.68,1.41.97,3.12,1.69,5.13,2.15,2.01.46,4.28.69,6.81.69s5.14-.25,8.01-.76c2.86-.51,5.8-1.25,8.81-2.22,3.11-.97,5.9-2,8.37-3.09,2.48-1.09,4.49-2.2,6.04-3.31.78-.53,1.65-1.21,2.62-2.04s1.97-1.75,2.98-2.77c1.02-1.02,2.06-2.12,3.13-3.31,1.07-1.19,2.11-2.41,3.13-3.68,1.75-2.28,3.28-4.46,4.59-6.55,1.31-2.09,2.4-4.16,3.28-6.22.87-2.06,1.53-4.15,1.97-6.26.44-2.11.66-4.33.66-6.66,0-2.52-.66-5.02-1.97-7.5Z"/>
      <path class="st2" d="M79.2,133.27c-2.72,2.53-6.57,4.28-11.43,5.21.06,1.72.17,3.3.36,4.72.27,2.04.75,3.74,1.46,5.1.7,1.36,1.66,2.38,2.88,3.06,1.21.68,2.74,1.02,4.59,1.02,3.49,0,6.14-1.1,7.93-3.31,1.8-2.21,2.69-5.71,2.69-10.52v-13.32c0-.61.02-1.26.05-1.93-2.53,3.8-5.39,7.16-8.53,9.98Z"/>
    </g>
  </g>
  <path class="st1" d="M92.66,185.13c-13.5,0-24.84-2.72-31.17-4.64-1.32-.4-2.07-1.8-1.67-3.13s1.8-2.07,3.13-1.67c12.03,3.65,32.59,5.59,68.65-9.07,8.16-3.32,16.89-7.82,22.67-14.88.88-1.07,2.46-1.23,3.53-.35,1.07.88,1.23,2.46.35,3.53-6.15,7.5-13.35,13.75-21.41,18.57-14.94,8.92-30.57,11.63-44.06,11.63Z"/>
  <path class="st0" d="M113.82,176.38c-5.52,1.3-13.15,2.24-18.77,2.01-1.01-.04-3.64-2.37-2.63-2.48,20.44-2.29,49.11-10.31,69.69-35.56,2.73-3.35,5.27-6.95,7.57-10.73.57-.93,1.71-1.18,2.54-.54.84.63,1.06,1.9.49,2.83-2.39,3.93-5.05,7.69-7.89,11.18-21.36,26.21-35.72,29.7-51,33.28-.06.01.06,0,0,0Z"/>
  <circle class="st1" cx="105.5" cy="30.72" r="6.68"/>
</svg>